<svg width="61px" height="23px" viewBox="0 0 61 23" version="1.1" xmlns="http://www.w3.org/2000/svg" xmlns:xlink="http://www.w3.org/1999/xlink">
    <defs>
        <polygon id="path-1" points="0 0 19.5503258 0 19.5503258 22.9999764 0 22.9999764"></polygon>
        <polygon id="path-3" points="0 23 61 23 61 0 0 0"></polygon>
    </defs>
    <g id="Page-1" stroke="none" stroke-width="1" fill="none" fill-rule="evenodd">
        <g id="Galatea_Result" transform="translate(-24.000000, -11.000000)">
            <g id="Group-19" transform="translate(24.000000, 11.000000)">
                <polygon id="Fill-1" fill="#28375B" points="5.53517724 12.3212641 7.84145146 12.3212641 7.84145146 11.0901354 5.53517724 11.0901354"></polygon>
                <polygon id="Fill-2" fill="#28375B" points="11.7125613 12.3212641 14.0188355 12.3212641 14.0188355 11.0901354 11.7125613 11.0901354"></polygon>
                <polygon id="Fill-3" fill="#28375B" points="8.12532808 17.2091788 11.158984 17.2091788 11.158984 15.9781091 8.12532808 15.9781091"></polygon>
                <polygon id="Fill-4" fill="#28375B" points="9.29615536 19.0084982 10.2541645 19.0084982 10.2541645 17.7774284 9.29615536 17.7774284"></polygon>
                <g id="Group-18">
                    <g id="Group-7" transform="translate(0.000000, 0.000024)">
                        <mask id="mask-2" fill="white">
                            <use xlink:href="#path-1"></use>
                        </mask>
                        <g id="Clip-6"></g>
                        <path d="M13.8966781,20.7147228 L13.5107702,18.8469845 C14.1136656,18.1470917 14.6235237,17.3297238 15.0374261,16.3968877 C15.7192422,14.8606185 16.1311194,13.0378631 16.2660293,10.9658123 C17.1649521,11.7770409 17.7222223,12.7517312 17.9278333,13.8793755 C18.0776935,14.701348 17.999011,15.4173567 17.9214601,15.8311765 C17.2611462,17.9240068 15.8005455,19.6693702 13.8966781,20.7147228 M6.74722798,21.2181544 L6.94581058,20.0373216 C7.66932073,20.5956536 8.48366425,21.0297808 9.38675644,21.3358067 L9.58772155,21.4039896 L9.78868667,21.3358067 C10.7877346,20.9973127 11.6774252,20.5089345 12.4551971,19.8751585 L12.7378229,21.2428301 C11.8144793,21.5827409 10.8163844,21.7688122 9.7751659,21.7688122 C8.70928839,21.7688122 7.68867866,21.5735908 6.74722798,21.2181544 M1.73965862,16.1570965 C1.68378865,15.9595138 1.45423336,15.0411998 1.64721705,13.9194587 C1.81691166,12.9328438 2.2541031,12.0623463 2.95188209,11.314578 C3.12693736,13.2979616 3.55811295,15.048933 4.2397504,16.5317776 C4.6802178,17.4897617 5.22033388,18.322183 5.85640574,19.0270935 L5.57943841,20.6735769 C3.81101688,19.6796419 2.43422121,18.0780824 1.73965862,16.1570965 M8.81739499,4.90834005 C8.73049277,5.09972434 8.60660201,5.32576088 8.43017679,5.5789525 C7.45596654,6.97661275 5.68617507,8.07869584 4.3730521,8.75710062 C3.04658705,9.44247127 2.14825989,10.2597802 1.54292247,11.0852947 C2.44994581,7.794512 5.31652791,5.29772031 8.81739499,4.90834005 M9.7751659,1.23112876 C10.0861436,1.23112876 10.4340503,1.69925875 10.4340503,2.32583275 C10.4340503,2.95240674 10.0861436,3.42059577 9.7751659,3.42059577 C9.46412861,3.42059577 9.1162219,2.95240674 9.1162219,2.32583275 C9.1162219,1.69925875 9.46412861,1.23112876 9.7751659,1.23112876 M9.58778112,20.0997192 C7.71411201,19.4057298 6.29580101,18.0346343 5.37019406,16.0213211 C4.66020468,14.4769644 4.23343674,12.5140652 4.12985691,10.3276679 C4.37936576,10.1619038 4.64674347,10.0049357 4.93204961,9.85688143 L4.93204961,10.7035887 L8.28478384,10.7035887 L8.28478384,15.3453957 L10.5025476,15.3453957 L10.5025476,14.1142079 L9.52696743,14.1142079 L9.52696743,9.47245992 L5.64340893,9.47245992 C7.45120151,8.45036626 8.7630141,7.33080947 9.54745706,6.13799299 C9.63936256,5.99826238 9.71923636,5.86408086 9.78910361,5.73586165 C9.8603408,5.86726863 9.94200149,6.00505115 10.0364682,6.14873696 C10.8182308,7.33736211 12.1235511,8.45325887 13.9216945,9.47245992 L10.7154253,9.47245992 L10.7154253,10.7035887 L14.2989657,10.7035887 L14.2989657,9.68102276 C14.4099313,9.74082297 14.5222668,9.80038705 14.6367467,9.8595379 C14.783867,9.9355131 14.9256861,10.0142038 15.0633359,10.0949607 C14.8769637,16.7049208 12.0412947,19.1914998 9.58778112,20.0997192 M17.992459,11.0306303 C17.3878959,10.2274302 16.5023748,9.43509217 15.2108732,8.76778555 C13.8978097,8.08938077 12.1280183,6.98735672 11.1538676,5.58963744 C10.9751194,5.33319901 10.8504543,5.10474213 10.763433,4.91182298 C14.2310044,5.31005816 17.0716171,7.77638894 17.992459,11.0306303 M19.1220688,16.1629998 C19.4039799,15.2510613 19.5503258,14.292605 19.5503258,13.3118343 C19.5503258,10.724014 18.5335281,8.2910958 16.6872579,6.46125653 C15.20313,4.99033659 13.3256488,4.05124303 11.2900283,3.73913668 C11.5401923,3.33629695 11.6762935,2.8419564 11.6762935,2.32583275 C11.6762935,1.7378662 11.4996896,1.17817635 11.1790627,0.749775419 C10.8225194,0.273262768 10.3107552,0 9.7751659,0 C9.2395766,0 8.727872,0.273262768 8.37120956,0.749775419 C8.0506422,1.17817635 7.87409787,1.7378662 7.87409787,2.32583275 C7.87409787,2.8419564 8.01019902,3.33629695 8.26024393,3.73913668 C6.22462339,4.05124303 4.34720181,4.99033659 2.86307385,6.46125653 C1.01680366,8.2910958 -5.36065804e-05,10.724014 -5.36065804e-05,13.3118343 C-5.36065804e-05,15.8995955 1.01680366,18.3325137 2.86307385,20.162412 C4.70934405,21.9922513 7.16416805,23 9.7751659,23 C12.3862233,23 14.8409877,21.9922513 16.6872579,20.162412 C17.7250218,19.1338248 18.500709,17.9146797 18.9810835,16.5846119 L19.011818,16.5947066 C19.0177742,16.5770558 19.0684027,16.4219176 19.1220688,16.1629998" id="Fill-5" fill="#28375B" mask="url(#mask-2)"></path>
                    </g>
                    <path d="M28.4191415,13.272058 C28.4191415,13.4307381 28.4491611,13.5812127 28.5092005,13.7233636 C28.5692399,13.8655736 28.6542957,13.9910773 28.7643678,14.1001699 C28.87444,14.2092625 29.0011302,14.2969852 29.1446172,14.3629839 C29.287985,14.4291596 29.4463627,14.462159 29.6199289,14.462159 C29.7865858,14.462159 29.9434148,14.4291596 30.0902373,14.3629839 C30.2369406,14.2969852 30.3654177,14.2092625 30.4754303,14.1001699 C30.5855621,13.9910773 30.6706178,13.8655736 30.7306572,13.7233636 C30.7906966,13.5812127 30.8207163,13.4307381 30.8207163,13.272058 C30.8207163,13.1133779 30.7906966,12.9630804 30.7306572,12.8208114 C30.6706178,12.6787195 30.5855621,12.5530386 30.4754303,12.4439461 C30.3654177,12.3348535 30.2369406,12.2473078 30.0902373,12.1811911 C29.9434148,12.1151334 29.7865858,12.081957 29.6199289,12.081957 C29.4463627,12.081957 29.287985,12.1151334 29.1446172,12.1811911 C29.0011302,12.2473078 28.87444,12.3348535 28.7643678,12.4439461 C28.6542957,12.5530386 28.5692399,12.6787195 28.5092005,12.8208114 C28.4491611,12.9630804 28.4191415,13.1133779 28.4191415,13.272058 L28.4191415,13.272058 Z M32.2016218,15.3051471 C32.2016218,16.2175579 31.9697435,16.9100715 31.5061657,17.3828651 C31.0424092,17.8555406 30.3369467,18.0919669 29.3897779,18.0919669 C28.9561007,18.0919669 28.5292136,18.0439142 28.108938,17.9481631 C27.6886625,17.8522348 27.3016825,17.6655141 26.9481769,17.3878238 L27.7787215,16.1580528 C28.0121484,16.3497323 28.2573091,16.5017417 28.5142038,16.6142582 C28.7709197,16.7266566 29.0528308,16.7828559 29.3597583,16.7828559 C29.8200601,16.7828559 30.1585559,16.6721103 30.3754243,16.4506193 C30.592114,16.2290693 30.7006375,15.9464203 30.7006375,15.6026724 L30.7006375,15.1365495 L30.6806244,15.1365495 C30.5070582,15.3680761 30.2919171,15.531715 30.0352012,15.6274662 C29.7783065,15.7232173 29.5364217,15.77127 29.3097254,15.77127 C28.9494892,15.77127 28.6225486,15.7102301 28.3290824,15.5878552 C28.035497,15.4655392 27.7837248,15.2936948 27.573587,15.0720857 C27.3634492,14.8506537 27.2016169,14.5878398 27.0882688,14.2836438 C26.9747419,13.979625 26.9181572,13.6456765 26.9181572,13.2819755 C26.9181572,12.9646152 26.9697386,12.6539257 27.0732589,12.3497297 C27.1766005,12.0457109 27.323423,11.7778791 27.5135476,11.5464706 C27.7036723,11.3150621 27.9353718,11.1283414 28.2090037,10.9860724 C28.4824568,10.8439805 28.7926602,10.7728459 29.1396139,10.7728459 C29.3530276,10.7728459 29.5481556,10.7961049 29.7249978,10.8422685 C29.9017208,10.8886092 30.0602176,10.9481143 30.2003094,11.0207836 C30.3404013,11.0936301 30.4604205,11.174505 30.5605457,11.2637626 C30.6606113,11.3530202 30.7406638,11.4407429 30.8007031,11.5265766 L30.8207163,11.5265766 L30.8207163,10.891856 L32.2016218,10.891856 L32.2016218,15.3051471 Z" id="Fill-8" fill="#28375B"></path>
                    <path d="M36.0840248,13.5993358 C35.9705575,13.5993358 35.8288574,13.6042945 35.6587459,13.614212 C35.4886343,13.6241295 35.3251343,13.6522882 35.1684244,13.6985699 C35.0115953,13.7448516 34.8782341,13.8142741 34.7681619,13.9067785 C34.6581493,13.99946 34.6031132,14.1283876 34.6031132,14.2935613 C34.6031132,14.4720765 34.679711,14.604428 34.8332045,14.6902616 C34.9865789,14.7762724 35.1467435,14.8191892 35.3135195,14.8191892 C35.4601633,14.8191892 35.6019825,14.7993542 35.7387984,14.7596842 C35.8754356,14.7200142 35.9972417,14.663933 36.1040379,14.5910866 C36.210715,14.5184172 36.2957707,14.4259128 36.3592052,14.3133963 C36.4225801,14.2010569 36.4542675,14.0688825 36.4542675,13.916696 L36.4542675,13.5993358 L36.0840248,13.5993358 Z M36.4542675,15.106797 L36.4342544,15.106797 C36.2674188,15.3646522 36.0455471,15.549838 35.7688181,15.6621774 C35.4919699,15.7745759 35.1999927,15.8307751 34.8932439,15.8307751 C34.6663689,15.8307751 34.4479519,15.7993696 34.2378141,15.7365587 C34.0277359,15.6738069 33.8425549,15.5795906 33.6825095,15.4539098 C33.522345,15.3284061 33.3955356,15.1729727 33.3022006,14.9878459 C33.2087465,14.8027781 33.1621087,14.5878398 33.1621087,14.3432079 C33.1621087,14.0654586 33.2137497,13.8308623 33.3172104,13.6390058 C33.420552,13.4473263 33.5607034,13.2886462 33.737486,13.1629654 C33.9141495,13.0374027 34.1160081,12.9398215 34.3429426,12.8703989 C34.5695793,12.8010354 34.8047335,12.749854 35.0483456,12.7166775 C35.2917791,12.6836782 35.5352125,12.6638432 35.7788246,12.6571725 C36.0223176,12.6506789 36.2474057,12.647255 36.4542675,12.647255 C36.4542675,12.3829062 36.3592052,12.1729265 36.1691401,12.0174932 C35.9789559,11.862237 35.7538082,11.7844318 35.4936376,11.7844318 C35.2467495,11.7844318 35.0216019,11.8357313 34.8181947,11.9381531 C34.6146088,12.0407521 34.4329421,12.1811911 34.2728371,12.3596472 L33.4723122,11.5464706 C33.7524959,11.2885564 34.0793173,11.095165 34.4529552,10.9662374 C34.8265335,10.8373097 35.2134539,10.7728459 35.6137164,10.7728459 C36.0540051,10.7728459 36.4157899,10.8273922 36.6994283,10.9365439 C36.9829475,11.0455774 37.2097629,11.2059695 37.3798745,11.417484 C37.549986,11.6291755 37.668397,11.8886246 37.735167,12.1960674 C37.8017583,12.5035101 37.835173,12.8589465 37.835173,13.2621405 L37.835173,15.711765 L36.4542675,15.711765 L36.4542675,15.106797 Z" id="Fill-10" fill="#28375B"></path>
                    <mask id="mask-4" fill="white">
                        <use xlink:href="#path-3"></use>
                    </mask>
                    <g id="Clip-13"></g>
                    <polygon id="Fill-12" fill="#28375B" mask="url(#mask-4)" points="38.7956779 15.7118122 40.2966621 15.7118122 40.2966621 8.21417608 38.7956779 8.21417608"></polygon>
                    <path d="M44.0591055,13.5993358 C43.9456382,13.5993358 43.8039382,13.6042945 43.6338266,13.614212 C43.4637151,13.6241295 43.300215,13.6522882 43.1435051,13.6985699 C42.9866761,13.7448516 42.8533148,13.8142741 42.7432426,13.9067785 C42.63323,13.99946 42.5781939,14.1283876 42.5781939,14.2935613 C42.5781939,14.4720765 42.6547918,14.604428 42.8082853,14.6902616 C42.9616597,14.7762724 43.1218242,14.8191892 43.2886003,14.8191892 C43.435244,14.8191892 43.5770632,14.7993542 43.7138791,14.7596842 C43.8505163,14.7200142 43.9723224,14.663933 44.0791186,14.5910866 C44.1857957,14.5184172 44.2708515,14.4259128 44.3342859,14.3133963 C44.3976608,14.2010569 44.4293483,14.0688825 44.4293483,13.916696 L44.4293483,13.5993358 L44.0591055,13.5993358 Z M44.4293483,15.106797 L44.4093352,15.106797 C44.2424996,15.3646522 44.0206279,15.549838 43.7438988,15.6621774 C43.4670506,15.7745759 43.1750734,15.8307751 42.8683247,15.8307751 C42.6414497,15.8307751 42.4230327,15.7993696 42.2128949,15.7365587 C42.0028166,15.6738069 41.8176357,15.5795906 41.6575903,15.4539098 C41.4974257,15.3284061 41.3706164,15.1729727 41.2772814,14.9878459 C41.1838272,14.8027781 41.1371895,14.5878398 41.1371895,14.3432079 C41.1371895,14.0654586 41.1888305,13.8308623 41.2922912,13.6390058 C41.3956328,13.4473263 41.5357842,13.2886462 41.7125668,13.1629654 C41.8892303,13.0374027 42.0910888,12.9398215 42.3180233,12.8703989 C42.54466,12.8010354 42.7798142,12.749854 43.0234264,12.7166775 C43.2668598,12.6836782 43.5102932,12.6638432 43.7539054,12.6571725 C43.9973984,12.6506789 44.2224864,12.647255 44.4293483,12.647255 C44.4293483,12.3829062 44.3342859,12.1729265 44.1442208,12.0174932 C43.9540366,11.862237 43.728889,11.7844318 43.4687184,11.7844318 C43.2218303,11.7844318 42.9966826,11.8357313 42.7932754,11.9381531 C42.5896896,12.0407521 42.4080228,12.1811911 42.2479178,12.3596472 L41.4473929,11.5464706 C41.7275766,11.2885564 42.0543981,11.095165 42.4280359,10.9662374 C42.8016143,10.8373097 43.1885346,10.7728459 43.5887971,10.7728459 C44.0290858,10.7728459 44.3908707,10.8273922 44.674509,10.9365439 C44.9580283,11.0455774 45.1848437,11.2059695 45.3549552,11.417484 C45.5250668,11.6291755 45.6434778,11.8886246 45.7102477,12.1960674 C45.776839,12.5035101 45.8102538,12.8589465 45.8102538,13.2621405 L45.8102538,15.711765 L44.4293483,15.711765 L44.4293483,15.106797 Z" id="Fill-14" fill="#28375B" mask="url(#mask-4)"></path>
                    <path d="M50.0629174,12.0819511 L48.7420513,12.0819511 L48.7420513,13.6885874 C48.7420513,13.8209389 48.7486628,13.9414839 48.7620644,14.0506355 C48.7754065,14.1596691 48.8054262,14.2538854 48.8521235,14.3332845 C48.8987016,14.4125655 48.9704749,14.4738415 49.0672645,14.5166993 C49.1638755,14.5597933 49.2924122,14.5811632 49.4525172,14.5811632 C49.5326292,14.5811632 49.6376386,14.5729576 49.7677239,14.5563694 C49.8978687,14.5399583 49.996207,14.5018231 50.0629174,14.442318 L50.0629174,15.6820066 C49.8960818,15.7415116 49.7226943,15.7811816 49.5426358,15.8010166 C49.3624581,15.8208517 49.185616,15.8307692 49.0122285,15.8307692 C48.7586693,15.8307692 48.5252425,15.8043225 48.3118287,15.7514291 C48.0982363,15.6986538 47.9115067,15.6142959 47.7514017,15.4985327 C47.5912967,15.3829465 47.4662147,15.2324719 47.3762152,15.047286 C47.2860966,14.8622773 47.241067,14.6374214 47.241067,14.3729545 L47.241067,12.0819511 L46.2804371,12.0819511 L46.2804371,10.8918501 L47.241067,10.8918501 L47.241067,9.46372897 L48.7420513,9.46372897 L48.7420513,10.8918501 L50.0629174,10.8918501 L50.0629174,12.0819511 Z" id="Fill-15" fill="#28375B" mask="url(#mask-4)"></path>
                    <path d="M54.1555356,12.7563299 C54.1620876,12.5051453 54.0788187,12.290207 53.9054312,12.1116918 C53.731865,11.9332357 53.5084446,11.8439781 53.234932,11.8439781 C53.0680964,11.8439781 52.9212739,11.8704248 52.7946432,11.9233182 C52.6678339,11.9762706 52.559489,12.0440403 52.46943,12.1265681 C52.3794305,12.2093321 52.309325,12.3050832 52.2592922,12.4141758 C52.2092594,12.5233274 52.1808479,12.6373198 52.1742364,12.7563299 L54.1555356,12.7563299 Z M55.426369,14.8786766 C55.1862711,15.1828725 54.8826196,15.4176459 54.5158314,15.5828787 C54.1488646,15.7480524 53.7686153,15.8307574 53.3750238,15.8307574 C53.001386,15.8307574 52.6496077,15.7712523 52.3193316,15.6523013 C51.989115,15.5332321 51.7022603,15.3630996 51.4588268,15.1414906 C51.2152147,14.9200586 51.0234818,14.6539978 50.88339,14.3431902 C50.7432981,14.0324416 50.6732522,13.6853288 50.6732522,13.3017928 C50.6732522,12.9184339 50.7432981,12.5713211 50.88339,12.2605135 C51.0234818,11.9497649 51.2152147,11.6837041 51.4588268,11.462095 C51.7022603,11.2406631 51.989115,11.0703535 52.3193316,10.9514024 C52.6496077,10.8323333 53.001386,10.7728282 53.3750238,10.7728282 C53.7218584,10.7728282 54.0370651,10.8323333 54.3206439,10.9514024 C54.6041036,11.0703535 54.8442611,11.2406631 55.0411163,11.462095 C55.2378525,11.6837041 55.3896782,11.9497649 55.4964745,12.2605135 C55.603092,12.5713211 55.6565199,12.9184339 55.6565199,13.3017928 L55.6565199,13.7679747 L52.1742364,13.7679747 C52.2342758,14.0522766 52.3644207,14.2786673 52.5644923,14.447324 C52.7646236,14.6158626 53.0113925,14.7002205 53.3050375,14.7002205 C53.5516873,14.7002205 53.7602764,14.6456742 53.9304476,14.5365226 C54.1004995,14.427489 54.2488706,14.287109 54.37568,14.1150875 L55.426369,14.8786766 Z" id="Fill-16" fill="#28375B" mask="url(#mask-4)"></path>
                    <path d="M59.2488041,13.5993358 C59.1353368,13.5993358 58.9936367,13.6042945 58.8235252,13.614212 C58.6534136,13.6241295 58.4899136,13.6522882 58.3332037,13.6985699 C58.1763746,13.7448516 58.0430134,13.8142741 57.9329412,13.9067785 C57.8229286,13.99946 57.7678925,14.1283876 57.7678925,14.2935613 C57.7678925,14.4720765 57.8444903,14.604428 57.9979838,14.6902616 C58.1513582,14.7762724 58.3115228,14.8191892 58.4782988,14.8191892 C58.6249426,14.8191892 58.7667618,14.7993542 58.9035777,14.7596842 C59.0402149,14.7200142 59.162021,14.663933 59.2688172,14.5910866 C59.3754943,14.5184172 59.46055,14.4259128 59.5239845,14.3133963 C59.5873594,14.2010569 59.6190468,14.0688825 59.6190468,13.916696 L59.6190468,13.5993358 L59.2488041,13.5993358 Z M59.6190468,15.106797 L59.5990337,15.106797 C59.4321981,15.3646522 59.2103264,15.549838 58.9335974,15.6621774 C58.6567492,15.7745759 58.364772,15.8307751 58.0580232,15.8307751 C57.8311483,15.8307751 57.6127312,15.7993696 57.4025934,15.7365587 C57.1925152,15.6738069 57.0073342,15.5795906 56.8472888,15.4539098 C56.6871243,15.3284061 56.5603149,15.1729727 56.4669799,14.9878459 C56.3735258,14.8027781 56.326888,14.5878398 56.326888,14.3432079 C56.326888,14.0654586 56.3785291,13.8308623 56.4819898,13.6390058 C56.5853313,13.4473263 56.7254828,13.2886462 56.9022653,13.1629654 C57.0789288,13.0374027 57.2807874,12.9398215 57.5077219,12.8703989 C57.7343586,12.8010354 57.9695128,12.749854 58.2131249,12.7166775 C58.4565584,12.6836782 58.6999918,12.6638432 58.9436039,12.6571725 C59.1870969,12.6506789 59.412185,12.647255 59.6190468,12.647255 C59.6190468,12.3829062 59.5239845,12.1729265 59.3339194,12.0174932 C59.1437352,11.862237 58.9185875,11.7844318 58.6584169,11.7844318 C58.4115288,11.7844318 58.1863812,11.8357313 57.982974,11.9381531 C57.7793881,12.0407521 57.5977214,12.1811911 57.4376164,12.3596472 L56.6370915,11.5464706 C56.9172752,11.2885564 57.2440966,11.095165 57.6177345,10.9662374 C57.9913128,10.8373097 58.3782332,10.7728459 58.7784957,10.7728459 C59.2187844,10.7728459 59.5805692,10.8273922 59.8642076,10.9365439 C60.1477268,11.0455774 60.3745422,11.2059695 60.5446538,11.417484 C60.7147653,11.6291755 60.8331763,11.8886246 60.8999463,12.1960674 C60.9665376,12.5035101 60.9999523,12.8589465 60.9999523,13.2621405 L60.9999523,15.711765 L59.6190468,15.711765 L59.6190468,15.106797 Z" id="Fill-17" fill="#28375B" mask="url(#mask-4)"></path>
                </g>
            </g>
        </g>
    </g>
</svg>
