<svg width="34px" height="34px" viewBox="0 0 34 34" version="1.1" xmlns="http://www.w3.org/2000/svg">
    <g id="Page-1" stroke="none" stroke-width="1" fill="none" fill-rule="evenodd">
        <g id="Galatea_Result" transform="translate(-44.000000, -621.000000)" fill-rule="nonzero">
            <g id="Group-4-Copy-3" transform="translate(14.000000, 582.000000)">
                <g id="Group-2" transform="translate(20.000000, 29.000000)">
                    <g id="upset" transform="translate(10.000000, 10.000000)">
                        <circle id="Oval" fill="#EBEEF5" cx="17" cy="17" r="17"></circle>
                        <g id="Group" transform="translate(7.083333, 5.901491)" fill="#404B63">
                            <circle id="Oval" cx="2.83333333" cy="8.26517546" r="2.83333333"></circle>
                            <circle id="Oval" cx="17" cy="8.26517546" r="2.83333333"></circle>
                            <path d="M6.01941667,4.48692546 C5.81683333,4.48692546 5.61283333,4.42884213 5.4315,4.30842546 L1.88983333,1.94684213 C1.40108333,1.62242546 1.26933333,0.962258793 1.59516667,0.473508793 C1.921,-0.0152412065 2.57833333,-0.146991207 3.0685,0.178842127 L6.61016667,2.54042546 C7.09891667,2.86625879 7.23066667,3.52500879 6.90483333,4.01375879 C6.69941667,4.32117546 6.36225,4.48692546 6.01941667,4.48692546 L6.01941667,4.48692546 Z" id="Path"></path>
                            <path d="M13.8139167,4.48692546 C13.4710833,4.48692546 13.1339167,4.32117546 12.9285,4.01375879 C12.6040833,3.52500879 12.7344167,2.86625879 13.2231667,2.54042546 L16.7648333,0.178842127 C17.2535833,-0.146991207 17.91375,-0.0152412065 18.2381667,0.473508793 C18.5625833,0.962258793 18.43225,1.62100879 17.9435,1.94684213 L14.4018333,4.30842546 C14.2205,4.43025879 14.0165,4.48692546 13.8139167,4.48692546 L13.8139167,4.48692546 Z" id="Path"></path>
                            <path d="M14.5208333,19.5985088 L5.3125,19.5985088 C4.726,19.5985088 4.25,19.1225088 4.25,18.5360088 C4.25,17.9495088 4.726,17.4735088 5.3125,17.4735088 L14.5208333,17.4735088 C15.1073333,17.4735088 15.5833333,17.9495088 15.5833333,18.5360088 C15.5833333,19.1225088 15.1073333,19.5985088 14.5208333,19.5985088 Z" id="Path"></path>
                        </g>
                    </g>
                </g>
            </g>
        </g>
    </g>
</svg>
