<svg width="34px" height="34px" viewBox="0 0 34 34" version="1.1" xmlns="http://www.w3.org/2000/svg">
    <g id="Page-1" stroke="none" stroke-width="1" fill="none" fill-rule="evenodd">
        <g id="Galatea_Result" transform="translate(-161.000000, -467.000000)" fill-rule="nonzero">
            <g id="Group-4-Copy-2" transform="translate(131.000000, 428.000000)">
                <g id="Group-2" transform="translate(20.000000, 29.000000)">
                    <g id="smile" transform="translate(10.000000, 10.000000)">
                        <ellipse id="Oval" fill="#EBEEF5" cx="17" cy="16.9734789" rx="17" ry="16.9734789"></ellipse>
                        <g id="Group" transform="translate(7.085547, 11.317863)" fill="#404B63">
                            <path d="M6.01640625,4.59477379 C5.43203125,4.59477379 4.95390625,4.1173947 4.95390625,3.53393136 C4.95390625,2.75156006 4.31640625,2.12168487 3.53945312,2.12168487 C2.7625,2.12168487 2.125,2.75819033 2.125,3.53393136 C2.125,4.1173947 1.646875,4.59477379 1.0625,4.59477379 C0.478125,4.59477379 0,4.1173947 0,3.53393136 C0,1.58463339 1.58710937,0 3.53945312,0 C5.49179687,0 7.07890625,1.58463339 7.07890625,3.53393136 C7.07890625,4.1173947 6.60742187,4.59477379 6.01640625,4.59477379 Z" id="Path"></path>
                            <path d="M18.7664062,4.59477379 C18.1820312,4.59477379 17.7039062,4.1173947 17.7039062,3.53393136 C17.7039062,2.75156006 17.0664062,2.12168487 16.2894531,2.12168487 C15.5125,2.12168487 14.875,2.75819033 14.875,3.53393136 C14.875,4.1173947 14.396875,4.59477379 13.8125,4.59477379 C13.228125,4.59477379 12.75,4.1173947 12.75,3.53393136 C12.75,1.58463339 14.3371094,0 16.2894531,0 C18.2417969,0 19.8289062,1.58463339 19.8289062,3.53393136 C19.8289062,4.1173947 19.3574219,4.59477379 18.7664062,4.59477379 Z" id="Path"></path>
                            <path d="M9.91445312,14.1423557 C6.81992187,14.1423557 3.91132812,12.9422777 1.7265625,10.7542902 C1.30820312,10.3365835 1.30820312,9.66692668 1.7265625,9.25585023 C2.14492187,8.84477379 2.815625,8.83814353 3.22734375,9.25585023 C5.01367187,11.0393916 7.39101562,12.0206708 9.91445312,12.0206708 C12.4378906,12.0206708 14.8152344,11.0393916 16.6015625,9.25585023 C17.0199219,8.83814353 17.690625,8.83814353 18.1023437,9.25585023 C18.5207031,9.67355694 18.5207031,10.3432137 18.1023437,10.7542902 C15.9175781,12.9422777 13.0089844,14.1423557 9.91445312,14.1423557 Z" id="Path"></path>
                        </g>
                    </g>
                </g>
            </g>
        </g>
    </g>
</svg>
