<svg width="34px" height="34px" viewBox="0 0 34 34" version="1.1" xmlns="http://www.w3.org/2000/svg">
    <g id="Page-1" stroke="none" stroke-width="1" fill="none" fill-rule="evenodd">
        <g id="Galatea_Result" transform="translate(-44.000000, -467.000000)" fill-rule="nonzero">
            <g id="Group-4" transform="translate(14.000000, 428.000000)">
                <g id="Group-2" transform="translate(20.000000, 29.000000)">
                    <g id="in-love" transform="translate(10.000000, 10.000000)">
                        <circle id="Oval" fill="#EBEEF5" cx="17" cy="17" r="17"></circle>
                        <g id="Group" transform="translate(5.666667, 8.500000)">
                            <path d="M11.3333333,18.9602184 C8.23880208,18.9602184 5.33020833,17.7601404 3.14544271,15.5721529 C2.72708333,15.1544462 2.72708333,14.4847894 3.14544271,14.0737129 C3.56380208,13.6626365 4.23450521,13.6560062 4.64622396,14.0737129 C6.43255208,15.8572543 8.80989583,16.8385335 11.3333333,16.8385335 C13.8567708,16.8385335 16.2341146,15.8572543 18.0204427,14.0737129 C18.4388021,13.6560062 19.1095052,13.6560062 19.521224,14.0737129 C19.9395833,14.4914197 19.9395833,15.1610764 19.521224,15.5721529 C17.3364583,17.7601404 14.4278646,18.9602184 11.3333333,18.9602184 Z" id="Path-Copy" fill="#404B63"></path>
                            <path d="M19.57125,0 C18.8855833,0 18.2353333,0.2125 17.7083333,0.5865 C17.1813333,0.2125 16.5310833,0 15.8454167,0 C14.1383333,0 12.75,1.30475 12.75,2.90983333 C12.75,5.35075 16.3823333,7.94041667 17.1119167,8.43483333 C17.2918333,8.55666667 17.4986667,8.61758333 17.7083333,8.61758333 C17.918,8.61758333 18.1248333,8.55666667 18.30475,8.43483333 C19.0343333,7.94041667 22.6666667,5.35075 22.6666667,2.90983333 C22.6666667,1.30475 21.2783333,0 19.57125,0 Z" id="Path" fill="#181EA9"></path>
                            <path d="M6.82125,0 C6.13558333,0 5.48533333,0.2125 4.95833333,0.5865 C4.43133333,0.2125 3.78108333,0 3.09541667,0 C1.38833333,0 0,1.30475 0,2.90983333 C0,5.35075 3.63233333,7.94041667 4.36191667,8.43483333 C4.54183333,8.55666667 4.74866667,8.61758333 4.95833333,8.61758333 C5.168,8.61758333 5.37483333,8.55666667 5.55475,8.43483333 C6.28433333,7.94041667 9.91666667,5.35075 9.91666667,2.90983333 C9.91666667,1.30475 8.52833333,0 6.82125,0 L6.82125,0 Z" id="Path" fill="#181EA9"></path>
                        </g>
                    </g>
                </g>
            </g>
        </g>
    </g>
</svg>
