<svg width="34px" height="34px" viewBox="0 0 34 34" version="1.1" xmlns="http://www.w3.org/2000/svg">
    <g id="Page-1" stroke="none" stroke-width="1" fill="none" fill-rule="evenodd">
        <g id="Galatea_Result" transform="translate(-162.000000, -467.000000)" fill-rule="nonzero">
            <g id="Group-4-Copy" transform="translate(132.000000, 428.000000)">
                <g id="Group-2" transform="translate(20.000000, 29.000000)">
                    <g id="crying" transform="translate(10.000000, 10.000000)">
                        <circle id="Oval" fill="#EBEEF5" cx="17" cy="17" r="17"></circle>
                        <g id="Group" transform="translate(7.083333, 9.916667)" fill="#404B63">
                            <circle id="Oval" cx="2.83333333" cy="2.83333333" r="2.83333333"></circle>
                            <circle id="Oval" cx="17" cy="2.83333333" r="2.83333333"></circle>
                            <path d="M13.8125,17.90525 C13.5405,17.90525 13.2685,17.8018333 13.0616667,17.5935833 C11.3815,15.9134167 8.45183333,15.9134167 6.77308333,17.5935833 C6.358,18.0086667 5.68508333,18.0086667 5.27,17.5935833 C4.85491667,17.1799167 4.85491667,16.5055833 5.27,16.0905 C6.511,14.8495 8.16141667,14.1666667 9.91666667,14.1666667 C11.6719167,14.1666667 13.3223333,14.8495 14.5633333,16.0919167 C14.9784167,16.507 14.9784167,17.1799167 14.5633333,17.595 C14.3565,17.8018333 14.0845,17.90525 13.8125,17.90525 L13.8125,17.90525 Z" id="Path"></path>
                        </g>
                        <path d="M26.3740833,17.1048333 C25.9774167,16.5310833 25.0225833,16.5310833 24.6259167,17.1048333 C24.0365833,17.9576667 22.6666667,20.0685 22.6666667,21.25 C22.6666667,22.8125833 23.9374167,24.0833333 25.5,24.0833333 C27.0625833,24.0833333 28.3333333,22.8125833 28.3333333,21.25 C28.3333333,20.0685 26.9634167,17.9576667 26.3740833,17.1048333 L26.3740833,17.1048333 Z" id="Path" fill="#181EA9"></path>
                    </g>
                </g>
            </g>
        </g>
    </g>
</svg>
